<svg xmlns="http://www.w3.org/2000/svg" width="19.44" height="16.91" viewBox="0 0 19.44 16.91">
  <defs>
    <style>
      .cls-1 {
        fill: #fff;
        fill-rule: evenodd;
      }
    </style>
  </defs>
  <path id="Forma_1_copy" data-name="Forma 1 copy" class="cls-1" d="M1281.35,1167.77a1.615,1.615,0,1,0,1.63,1.62A1.62,1.62,0,0,0,1281.35,1167.77Zm7.08,0a1.615,1.615,0,1,0,1.63,1.62A1.62,1.62,0,0,0,1288.43,1167.77Zm4.08-8.85h-8.99a0.81,0.81,0,0,0,0,1.62h7.95l-0.5,1.7h-8.08a0.75,0.75,0,1,0,0,1.5h7.63l-0.47,1.59h-9.11l-0.61-4.79-0.57-4.68a0.92,0.92,0,0,0-.68-0.76l-3.85-.98a0.922,0.922,0,0,0-1.11.66,0.907,0.907,0,0,0,.66,1.1l3.24,0.83,1.27,9.42a1.1,1.1,0,0,0,1.04,1.1h10.08a1.056,1.056,0,0,0,1-.87l2-5.9S1294,1158.92,1292.51,1158.92Z" transform="translate(-1274.09 -1154.09)"/>
</svg>
